<?xml version="1.0" encoding="UTF-8"?>
<svg id="Layer_1" data-name="Layer 1" xmlns="http://www.w3.org/2000/svg" viewBox="0 0 668.44 553.8">
  <defs>
    <style>
      .cls-1 {
        fill: #4b546e;
      }

      .cls-2 {
        fill: #414960;
      }

      .cls-3 {
        fill: #fbdd3c;
      }

      .cls-4 {
        fill: #4660f3;
      }
    </style>
  </defs>
  <path class="cls-2" d="M606.85,226.69c-23.81-24.25-47.64-42.51-76-61-36.98-24.12-96.65-55.5-141-59-5.6-1.43-12.78-2.68-18.51-2.99-27.82-1.52-64.74.95-80.29,27.69-9.45,16.24-9.6,39.61-16.2,57.3,7.64,2.84,16.11,4.13,23.9,6.6l-.39.86-14.71,30.54-.5,5.72c-5.99-1.87-12.28-4.03-17.3-5.72-9.24,41.75-19.81,83.21-29.74,124.8-.35,1.48,0,3.13-.26,4.2-2.62,10.98-5.38,21.99-8,33-5.88,24.67-12.6,49.21-18,74,7.79-.3,15.58-1.76,23.42-2.11l-.87,8.06.36,6.2c-8.92.73-18.02,2.44-26.91,2.84-1.08,8.69-4.41,16.29-5,25-3.81,15.9,3.06,30.19,16,39,27.75,18.9,68.79,10.73,101,8,9.45-.8,18.81-1.97,28-3,38.52-4.31,74.32-9.65,112-19,64.09-15.91,132.51-41.22,177-92,19.51-22.26,30.28-45.39,33-75,5.13-55.8-23.73-96.05-61-134ZM309.74,196.6l.06-.04c.07-.18.14-.35.2-.53,6.26-13.74,13.32-26.28,20.91-34.84,3.37-3.47,7.02-6.52,10.97-9.12,33.35-17.58,118.59,18.21,118.59,18.21,0,0,104.85,47.08,142.27,105.93,0,0-76.41,27.67-144.76,21.34-2.6-.46-5.44-.77-8.35-.95-.04,0-.08-.01-.13-.02,0,0-17.74-3.27-36.1,7.16,0,0-90.43-9.57-121.57-20.89-3.31-1.37-6.56-2.81-9.74-4.34,0,0,10.96-45.09,27.65-81.92ZM407.33,396.42c14.39-11.75,47.88-52.57,50.52-69.73,2.25-1.42,1.83-3.75,2-6,.29-3.89.59-7.27.61-10.69,16.19-1.47,33.41-3.09,49.39-4.62.08,3.46-.16,6.87-.65,10.2-9.36,3.74-18.7,8.87-27.71,15.79-33.85,26-60.07,69.5-76.76,103.23-4.45,2.02-8.86,4.14-13.32,6.18l15.91-44.35ZM379.61,344.86s-2.28,28.61,20.24,35.57c0,0-19.09,94.03-58.09,127.26,0,0-36.33,18.4-80.69,0,0,0-24.31-5.99-13.77-74.99,3.19-20.9,6.46-38.66,9.46-53.31.66-2.21,1.14-4.49,1.41-6.73.7-3.29,1.38-6.39,2.05-9.31h.02c3.03-11.51,5.99-23.03,8.9-34.55.04-.12.07-.21.07-.21l-.04.09c.53-2.09,1.07-4.18,1.59-6.27,0,0,76.24-7.3,108.84,22.47ZM558.45,437.24c-50.5,43.29-143.56,64.55-158.16,67.68-.65.13-1.3.28-1.96.41l-.49,2.35c-.44-1.48-.73-2.99-.91-4.54l1.4,2.19s10.49-185.61,220.59-185.92c0,0-.54-.25-1.55-.67.67.19,1.21.41,1.55.67-.79,36.09-5.58,70.77-60.48,117.83Z"/>
  <path class="cls-1" d="M316.85,517.69c-4.12,1.85-10.25.99-15,1,4.15-1.91,10.22-.92,15-1Z"/>
  <g>
    <path class="cls-4" d="M567.22,100.77c-.42-.14-.89-.13-1.37-.08-8.74,12-20.86,21.6-33.98,28.52-3.52,1.86-20.49,7.76-19.94,10.84l3.54,3.4c13.26-1.13,26.89-4.86,38.74-10.9,1.84-.94,13.35-8.1,13.64-8.86l1.72-1.1c.34-1.77-.95-21.35-2.34-21.81Z"/>
    <path class="cls-4" d="M589.6,79.79c-4.23,2.84-7.07,11.73-7.75,16.9-.78,2.42-1.45,4.42-2,6-.08,2.99.06,6.01,0,9,1.28-2.1,4.37-4.77,6.03-7.47,6.34-10.36,5.63-14.65,7.97-25.53-2.35-.53-2.65.03-4.25,1.1Z"/>
    <path class="cls-4" d="M448.62,230.88s0,0,0,0c-2.57-1.03-5.16-2.01-7.78-2.94-14.08-5.3-17.62-6.37-28.52-8.63-12.9-3.32-25.39-5.91-36.25-8.15-10.53-2.17-21.08-4.34-31.62-6.49-11.37-2.61-24.56-5.69-39.95-9.36-5.83-2.78-17.22-5.73-24.59-7.25-80.01-29.07-37.94-80.6-20-98.38,56.83-54.93,150.65-71.02,226.29-59.82,23.29,3.45,49.02,10.13,67.67,24.83,3.3,2.48,10.01-4.44,9.95-8.28,2.23-2.06,5.38-10.45,2.05-11.72-17.91-12.21-38.78-19.32-59.99-23.51-74.55-14.72-189.69,6.6-258.31,59.73h-.01c-.15.11-.3.24-.46.36-14.84,11.56-27.49,24.6-37.04,39.1-13.58,20.62-17.57,38.81-14.61,54.56.21,33.79,53.27,62.73,101.97,75.34,47.82,12.38,119.52,12.19,147.22,39.29.26.26.51.51.76.77.21.22.43.44.64.66.14.15.27.3.4.45,26,28.63.86,69.84-29.43,102.77h0c-5.31,5.2-10.87,9.94-16.57,14.05l-.27.33c-.18.36-.38.7-.58,1.04-35.72,26.64-97.7,50.72-165.2,59.1-7.2.18-14.51.79-21.93,1.82l-.22.19c-64.03,3.48-158.81-9.08-187.93-36.8-8.8-11.31-8.54-22.84-3.01-33.68h0c12.31-17.31,29.1-30.39,46.28-40.18,2.04-1.08,4.08-2.12,6.1-3.09,21.34-10.33,43.85-16.78,66.93-22.07l2.28-1.73c.6-2.6-6.52-3.29-8.51-3.47-16.73-1.53-34.35,1.29-51.16,7.22-.03,0-.05.01-.08.02-10.81,3.28-20.69,8.3-29.51,14.09-13.35,8.16-25.31,18.14-34.7,29.14-5.87,6.87-10.23,13.4-13.28,19.59-.02.02-.02.04-.02.04,0,0-1.37,2.43-2.75,6.48-2.05,5.73-2.94,11.15-2.81,16.25-.13,22.96,16.7,56,110.9,62.94.01,0,.03,0,.04,0,19.18,1.99,39.29,2.86,58.67,2.95,13.19.33,25.73.38,37.69.21l.46.29c1.61-.14,3.2-.26,4.8-.39,85.78-1.82,140.39-16.18,178.84-33.91,51.86-23.91,109.45-77.39,120.49-123.01s-20.18-74.38-63.29-90.73Z"/>
  </g>
  <path class="cls-3" d="M579.64,109.22l-8.33,41.8-8.33-41.8c-2.55-12.81-12.57-22.82-25.37-25.37l-41.8-8.33,41.8-8.33c12.81-2.55,22.82-12.57,25.37-25.37l8.33-41.8,8.33,41.8c2.55,12.81,12.57,22.82,25.37,25.37l41.8,8.33-41.8,8.33c-12.81,2.55-22.82,12.57-25.37,25.37Z"/>
</svg>